<svg xmlns:xlink="http://www.w3.org/1999/xlink" width="90" height="32" fill="none" xmlns="http://www.w3.org/2000/svg"><path d="M17.016 9.976v21.432h5.395V9.976h-5.395zm67.59 0v21.432H90V9.976h-5.394zM47.063 22.931H30.978c.714 2.699 2.718 3.998 5.95 3.998a5.595 5.595 0 002.651-.476 5.639 5.639 0 002.129-1.663l4.442 2.58a10.617 10.617 0 01-4.025 3.52 10.52 10.52 0 01-5.217 1.098 11.4 11.4 0 01-4.572-.73 11.471 11.471 0 01-3.916-2.49 11.044 11.044 0 01-2.441-3.733 11.115 11.115 0 01-.772-4.403A11.255 11.255 0 0126 16.313a11.186 11.186 0 012.381-3.678 10.704 10.704 0 013.712-2.5 10.633 10.633 0 014.4-.759 9.846 9.846 0 014.215.77 9.917 9.917 0 013.5 2.49 11.387 11.387 0 013.074 8.096 16.12 16.12 0 01-.218 2.199zm-16.164-4.298h10.868a5.208 5.208 0 00-1.82-3.184 5.13 5.13 0 00-3.455-1.175 5.72 5.72 0 00-3.67 1.14 5.446 5.446 0 00-1.923 3.219zM55.55 31.408h-5.532V0h5.533v31.408zm9.203 0H59.24V0h5.513v31.408z" fill="#2054D2"></path><path d="M22.331 20.692a11.32 11.32 0 01-1.872 6.259 11.185 11.185 0 01-5.007 4.154A11.082 11.082 0 019 31.754a11.138 11.138 0 01-5.723-3.076 11.284 11.284 0 01-3.061-5.763 11.34 11.34 0 01.632-6.506 11.237 11.237 0 014.112-5.054 11.102 11.102 0 016.206-1.899 11.12 11.12 0 017.888 3.29 11.301 11.301 0 013.277 7.946zm-16.877 0a5.79 5.79 0 00.963 3.199 5.722 5.722 0 002.563 2.12 5.67 5.67 0 003.3.328 5.697 5.697 0 002.925-1.576 5.772 5.772 0 001.563-2.948 5.8 5.8 0 00-.325-3.327 5.748 5.748 0 00-2.104-2.583 5.68 5.68 0 00-7.212.716 5.781 5.781 0 00-1.673 4.07zm84.466 0a11.32 11.32 0 01-1.871 6.259 11.185 11.185 0 01-5.007 4.154 11.082 11.082 0 01-6.453.649 11.138 11.138 0 01-5.722-3.076 11.285 11.285 0 01-3.062-5.763 11.34 11.34 0 01.632-6.506 11.237 11.237 0 014.112-5.054 11.102 11.102 0 016.206-1.899 11.12 11.12 0 017.888 3.29 11.302 11.302 0 013.278 7.946zm-16.877 0a5.79 5.79 0 00.963 3.199 5.722 5.722 0 002.563 2.12 5.67 5.67 0 003.3.328 5.698 5.698 0 002.925-1.576 5.772 5.772 0 001.563-2.948 5.8 5.8 0 00-.325-3.327 5.748 5.748 0 00-2.104-2.583 5.68 5.68 0 00-3.173-.97 5.709 5.709 0 00-4.033 1.691 5.8 5.8 0 00-1.679 4.066z" fill="#D8A28F"></path></svg>